# xmcd
#
# Track frame offsets: 
#        150
#        21232
#        39615
#        62975
#        91620
#        110910
#        131437
#        147832
#        166032
#        185835
#        206065
#        221785
#        236265
#        252815
#        273112
#        293667
#
# Disc length: 4217 seconds
#
# Revision: 0
# Processed by: cddbd v1.5.2PL0 Copyright (c) Steve Scherf et al.
# Submitted via: ExactAudioCopy v0.95a4
#
DISCID=ea107710
DTITLE=Fathead - Livelier Than Ever
DYEAR=2005
DGENRE=Blues
TTITLE0=Let The Goodtimes Roll
TTITLE1=Cockle Doodle-Do
TTITLE2=Crawfishin'
TTITLE3=Why Are People Like That?
TTITLE4=Hard Times
TTITLE5=Blue Water
TTITLE6=Am I Wrong?
TTITLE7=Number Nine Train
TTITLE8=Somebody Else's But mine (Hole In My Pocket)
TTITLE9=Same Old Thing
TTITLE10=Steak and Potatoes
TTITLE11=Grow Too Old
TTITLE12=Monkey Time
TTITLE13=Low Life
TTITLE14=Let's Have A Party
TTITLE15=I Want You
EXTD=
EXTT0=
EXTT1=
EXTT2=
EXTT3=
EXTT4=
EXTT5=
EXTT6=
EXTT7=
EXTT8=
EXTT9=
EXTT10=
EXTT11=
EXTT12=
EXTT13=
EXTT14=
EXTT15=
PLAYORDER=
